# xmcd
#
# Track frame offsets:
#	150
#	15620
#	30134
#	44745
#	58359
#	73789
#	90076
#	104024
#	117082
#	131506
#	146129
#	160293
#	174518
#	192352
#	206797
#	222565
#
# Disc length: 3159 seconds
#
# Revision: 1
# Processed by: cddbd v1.5.1PL2 Copyright (c) Steve Scherf et al.
# Submitted via: audiograbber 1.83.01
#
DISCID=f00c5510
DTITLE=Various Artist - DISCO-FOX BOX CD1
DYEAR=2001
DGENRE=Schlager
TTITLE0=G.G. Anderson - Ich bin verrückt nach Dir Amore Mio
TTITLE1=Andy Borg - Das mag ich so an dir
TTITLE2=Ireen Sheer - Für immer du
TTITLE3=Calimeros - Was immer du willst
TTITLE4=Leonard - Wie schön du bist
TTITLE5=Rosanna Rocci - Mit dir ist das Leben ein Hit
TTITLE6=Oliver Haidt - Lebenslänglich du
TTITLE7=Moonbeats - Du lässt mir immer nur die Sonne da
TTITLE8=Fernando Express - Wir machen Holiday
TTITLE9=Dennie Christian - Im Zweifel mit dir
TTITLE10=Gino D'oro and Gaby Baginsky - Viel zu heiß
TTITLE11=Carriere - Ganz egal was mal war
TTITLE12=Michael Morgan - Einmal ist keinmal
TTITLE13=Amarillos - Mit Dir bin ich glücklich
TTITLE14=Simone - Geh nicht vorbei
TTITLE15=Die Paldauer - Meine Küsse lügen nicht
EXTD=
EXTT0=
EXTT1=
EXTT2=
EXTT3=
EXTT4=
EXTT5=
EXTT6=
EXTT7=
EXTT8=
EXTT9=
EXTT10=
EXTT11=
EXTT12=
EXTT13=
EXTT14=
EXTT15=
PLAYORDER=
